<svg xmlns="http://www.w3.org/2000/svg" version="1" viewBox="0 0 612.09 560.54" overflow="visible"><g clip-rule="evenodd" fill-rule="evenodd"><path d="M333.38 121.35l-.47 429.18-114.99-37.4V8.67l146.78 38.8c93.96 25.25 151.45 74.34 150.52 160.36C514.28 307.9 468 348.1 377.79 321.91V124.6c0-23.84-44.4-25.24-44.4-3.26z" fill="#de0029"/><path d="M165.1 429.9l-54.22 18.24C75.8 460.3 45.9 431.78 78.15 420.08l26.18-9.34L5.7 379.4c-30.4 10.29-58.9 32.26-57.03 63.12 1.87 31.32 73.38 38.8 128.55 47.69 51.41 8.4 98.16 3.74 140.7-11.23v-32.26L165.1 429.9zm168.75 120.63l100.5-35.07-101.44-32.26v64.98l.94 2.35z" fill="#f3c202"/><path d="M601.23 456.56l1.87-.47c43.94-15.43 62.64-36.94 57.97-57.04-7.48-33.66-61.24-51.9-143.98-57.97-59.36-4.2-117.8 8.88-174.82 28.51l-9.35 3.28 102.37 31.79 59.83-20.1c62.64-11.7 87.89 8.88 27.58 28.05l-29.92 10.28 108.45 33.67zm-383.3-148.67l-45.35 15.42 45.34 14.03v-29.45z" fill="#326db3"/><path d="M434.35 515.46l166.88-58.9-108.45-33.67-159.87 54.7v5.61l101.44 32.26zM217.92 412.14L165.1 429.9l52.82 16.83v-34.6zm115 27.59v-66.86l102.37 31.79-102.38 35.07zm-228.6-29l113.6-40.67v-32.72l-45.34-14.03L8.03 378.95c-.46 0-1.4.46-2.33.46l98.63 31.33z" fill="#00aa9e"/></g></svg>
